<svg xmlns="http://www.w3.org/2000/svg" version="1.1" xmlns:xlink="http://www.w3.org/1999/xlink" xmlns:svgjs="http://svgjs.dev/svgjs" width="1500" height="181" viewBox="0 0 1500 181"><g transform="matrix(1,0,0,1,-0.9090909090909918,0.8169883780645222)"><svg viewBox="0 0 396 48" data-background-color="#3b4131" preserveAspectRatio="xMidYMid meet" height="181" width="1500" xmlns="http://www.w3.org/2000/svg" xmlns:xlink="http://www.w3.org/1999/xlink"><g id="tight-bounds" transform="matrix(1,0,0,1,0.2400000000000091,-0.2166599013651762)"><svg viewBox="0 0 395.52 48.43331980273033" height="48.43331980273033" width="395.52"><g><svg viewBox="0 0 536.7510333711674 65.72773678628573" height="48.43331980273033" width="395.52"><g transform="matrix(1,0,0,1,141.2310333711674,5.53061125028572)"><svg viewBox="0 0 395.52 54.66651428571429" height="54.66651428571429" width="395.52"><g id="textblocktransform"><svg viewBox="0 0 395.52 54.66651428571429" height="54.66651428571429" width="395.52" id="textblock"><g><svg viewBox="0 0 395.52 54.66651428571429" height="54.66651428571429" width="395.52"><g transform="matrix(1,0,0,1,0,0)"><svg width="395.52" viewBox="-0.5 -38 279.98 38.7" height="54.66651428571429" data-palette-color="#fff6db"><path d="M14.15 0.18L13.35 0.18-0.5-34.85 6.45-34.85 11.95-19.5 13.88-13.68 15.8-19.5 21.1-34.85 27.95-34.85 14.15 0.18ZM37.95-28.95L30.95-28.95 30.95-35.6 37.95-35.6 37.95-28.95ZM37.7 0L31.2 0 31.2-24.9 37.7-24.9 37.7 0ZM53.5 0.7L53.5 0.7Q50.47 0.7 48.25-0.93 46.02-2.55 44.81-5.5 43.6-8.45 43.6-12.4L43.6-12.4Q43.6-18.55 46.11-22.03 48.62-25.5 53.6-25.5L53.6-25.5Q56.15-25.5 57.91-24.24 59.67-22.98 60.2-20.6L60.2-20.6 59.75-24.25 59.75-38 65.65-38 65.65 0 60.2 0 60.2-5.1Q59.52-2.53 57.82-0.91 56.12 0.7 53.5 0.7ZM54.95-4.25L54.95-4.25Q56.75-4.25 58.17-6.14 59.6-8.03 59.6-12.3L59.6-12.3Q59.6-16.2 58.5-18.32 57.4-20.45 55.1-20.45L55.1-20.45Q53.92-20.45 52.76-19.73 51.6-19 50.82-17.24 50.05-15.48 50.05-12.4L50.05-12.4Q50.05-8.28 51.47-6.26 52.9-4.25 54.95-4.25ZM82.34 0.65L82.34 0.65Q78.14 0.65 75.57-1.11 72.99-2.88 71.82-5.79 70.64-8.7 70.64-12.15L70.64-12.15Q70.64-15.78 71.98-18.81 73.32-21.85 75.91-23.68 78.49-25.5 82.24-25.5L82.24-25.5Q87.84-25.5 90.07-22.26 92.29-19.03 92.29-13.1L92.29-13.1Q92.29-12.58 92.27-11.78 92.24-10.98 92.19-10.4L92.19-10.4 77.19-10.4Q77.34-7.45 78.86-5.78 80.37-4.1 83.39-4.1L83.39-4.1Q84.94-4.1 86.72-4.79 88.49-5.48 89.34-6.45L89.34-6.45 91.34-1.7Q90.34-1.03 88.18-0.19 86.02 0.65 82.34 0.65ZM77.14-14.3L77.14-14.3 85.94-14.3Q85.94-16.93 85.48-18.31 85.02-19.7 84.22-20.23 83.42-20.75 82.39-20.75L82.39-20.75Q79.84-20.75 78.57-18.86 77.29-16.98 77.14-14.3ZM108.09 0.5L108.09 0.5Q102.59 0.5 99.59-2.95 96.59-6.4 96.59-12.5L96.59-12.5Q96.59-18.65 99.69-22.08 102.79-25.5 108.29-25.5L108.29-25.5Q113.82-25.5 116.7-21.96 119.59-18.43 119.59-12.5L119.59-12.5Q119.59-6.58 116.6-3.04 113.62 0.5 108.09 0.5ZM108.19-4.5L108.19-4.5Q112.94-4.5 112.94-12.5L112.94-12.5Q112.94-20.55 108.19-20.55L108.19-20.55Q105.84-20.55 104.54-18.69 103.24-16.82 103.24-12.5L103.24-12.5Q103.24-8.2 104.54-6.35 105.84-4.5 108.19-4.5ZM137.69 0.6L137.69 0.6Q134.96 0.6 132.44-0.51 129.91-1.63 127.9-3.89 125.89-6.15 124.71-9.65 123.54-13.15 123.54-17.9L123.54-17.9Q123.54-23.6 125.53-27.51 127.51-31.43 130.85-33.44 134.19-35.45 138.24-35.45L138.24-35.45Q140.99-35.45 142.73-34.93 144.46-34.4 145.5-33.68 146.54-32.95 147.19-32.35L147.19-32.35 144.39-27.1Q143.31-28.28 142.16-28.99 141.01-29.7 138.49-29.7L138.49-29.7Q135.94-29.7 134.15-28.23 132.36-26.75 131.43-24.16 130.49-21.58 130.49-18.25L130.49-18.25Q130.49-11.73 132.68-8.41 134.86-5.1 137.94-5.1L137.94-5.1Q140.31-5.1 141.99-5.78 143.66-6.45 144.49-7.3L144.49-7.3 147.24-2.35Q146.54-1.78 145.38-1.09 144.21-0.4 142.35 0.1 140.49 0.6 137.69 0.6ZM161.64 0.5L161.64 0.5Q156.14 0.5 153.14-2.95 150.14-6.4 150.14-12.5L150.14-12.5Q150.14-18.65 153.24-22.08 156.34-25.5 161.84-25.5L161.84-25.5Q167.36-25.5 170.25-21.96 173.14-18.43 173.14-12.5L173.14-12.5Q173.14-6.58 170.15-3.04 167.16 0.5 161.64 0.5ZM161.74-4.5L161.74-4.5Q166.49-4.5 166.49-12.5L166.49-12.5Q166.49-20.55 161.74-20.55L161.74-20.55Q159.39-20.55 158.09-18.69 156.79-16.82 156.79-12.5L156.79-12.5Q156.79-8.2 158.09-6.35 159.39-4.5 161.74-4.5ZM185.33 0L178.93 0 178.93-24.9 184.73-24.9 184.86-21.63Q185.83-23.13 187.58-24.31 189.33-25.5 192.18-25.5L192.18-25.5Q195.98-25.5 197.83-23.1 199.68-20.7 199.68-16.45L199.68-16.45 199.68 0 193.28 0 193.28-15.9Q193.28-17.98 192.41-19.26 191.53-20.55 189.73-20.55L189.73-20.55Q187.98-20.55 186.66-19.26 185.33-17.98 185.33-15.9L185.33-15.9 185.33 0ZM216.43 0L211.98 0 201.88-24.9 208.88-24.9 213.18-12.45 214.28-8.35 215.28-12.45 219.43-24.9 226.03-24.9 216.43 0ZM239.33 0.5L239.33 0.5Q233.83 0.5 230.83-2.95 227.83-6.4 227.83-12.5L227.83-12.5Q227.83-18.65 230.93-22.08 234.03-25.5 239.53-25.5L239.53-25.5Q245.05-25.5 247.94-21.96 250.83-18.43 250.83-12.5L250.83-12.5Q250.83-6.58 247.84-3.04 244.85 0.5 239.33 0.5ZM239.43-4.5L239.43-4.5Q244.18-4.5 244.18-12.5L244.18-12.5Q244.18-20.55 239.43-20.55L239.43-20.55Q237.08-20.55 235.78-18.69 234.48-16.82 234.48-12.5L234.48-12.5Q234.48-8.2 235.78-6.35 237.08-4.5 239.43-4.5ZM269.78-2.2L264.38-2.2 264.38-12.3 255.03-12.3 255.03-17.2 264.38-17.2 264.38-27.2 269.78-27.2 269.78-17.2 279.48-17.2 279.48-12.3 269.78-12.3 269.78-2.2Z" opacity="1" transform="matrix(1,0,0,1,0,0)" fill="#fff6db" class="wordmark-text-0" data-fill-palette-color="primary" id="text-0"></path></svg></g></svg></g></svg></g></svg></g><g><svg viewBox="0 0 128.3255813446531 65.72773678628573" height="65.72773678628573" width="128.3255813446531"><g><svg xmlns="http://www.w3.org/2000/svg" xmlns:xlink="http://www.w3.org/1999/xlink" version="1.1" x="0" y="0" viewBox="4 24 82 42" enable-background="new 0 0 90 90" xml:space="preserve" height="65.72773678628573" width="128.3255813446531" class="icon-icon-0" data-fill-palette-color="accent" id="icon-0"><polygon points="71.57,36.655 68,38.73 68,24 4,24 4,66 68,66 68,51.271 71.57,53.345 86,61.69 86,45 86,28.31 " fill="#bbaefe" data-fill-palette-color="accent"></polygon></svg></g></svg></g></svg></g><defs></defs></svg><rect width="395.52" height="48.43331980273033" fill="none" stroke="none" visibility="hidden"></rect></g></svg></g></svg>